<svg id="Layer_1" data-name="Layer 1" xmlns="http://www.w3.org/2000/svg" viewBox="0 0 293 333"><defs><style>.cls-1{fill:#4d4d4d;}.cls-1,.cls-4{stroke:#000;stroke-miterlimit:10;stroke-width:2px;}.cls-2{fill:#29abe2;}.cls-3{fill:#333;}.cls-4,.cls-7{fill:#b3b3b3;}.cls-5{fill:#005994;}.cls-6{fill:#005791;}.cls-8{fill:#0071bc;}.cls-9{fill:#999;}</style></defs><path class="cls-1" d="M427-31" transform="translate(-49 -38)"/><polyline class="cls-2" points="114 332.98 114 64.59 293 64.59 293 226.09"/><polygon class="cls-3" points="114.16 332.98 149.61 64.59 78.7 64.59 114.16 332.98"/><path class="cls-4" d="M30,203.39" transform="translate(-49 -38)"/><path class="cls-4" d="M83,122" transform="translate(-49 -38)"/><path class="cls-4" d="M25,163.31" transform="translate(-49 -38)"/><polygon class="cls-5" points="149.61 64.59 114.16 332.98 228.05 64.59 149.61 64.59"/><polyline class="cls-6" points="78.73 64.61 114.19 333 0.29 64.61"/><path class="cls-7" d="M163.19,371" transform="translate(-49 -38)"/><path class="cls-7" d="M163.19,371" transform="translate(-49 -38)"/><path class="cls-7" d="M163.19,371" transform="translate(-49 -38)"/><polygon class="cls-8" points="228 221.25 114.19 333 228.05 64.59 228 221.25"/><polygon class="cls-8" points="0 211.53 114.23 332.62 0.36 64.2 0 211.53"/><rect class="cls-9" width="228" height="64.59"/></svg>